<svg width="18" height="18" viewBox="0 0 18 18" fill="none" xmlns="http://www.w3.org/2000/svg">
<g filter="url(#filter0_d_1810_17289)">
<path d="M13.6668 6.99996V4.99996C13.6668 4.64634 13.5264 4.3072 13.2763 4.05715C13.0263 3.8071 12.6871 3.66663 12.3335 3.66663H5.66683C5.31321 3.66663 4.97407 3.8071 4.72402 4.05715C4.47397 4.3072 4.3335 4.64634 4.3335 4.99996V6.99996" stroke="#7E8B97" stroke-width="1.5" stroke-linecap="round" stroke-linejoin="round"/>
<path d="M3 8.33333V11.6667C3 12.0203 3.14048 12.3594 3.39052 12.6095C3.64057 12.8595 3.97971 13 4.33333 13H13.6667C14.0203 13 14.3594 12.8595 14.6095 12.6095C14.8595 12.3594 15 12.0203 15 11.6667V8.33333C15 7.97971 14.8595 7.64057 14.6095 7.39052C14.3594 7.14048 14.0203 7 13.6667 7C13.313 7 12.9739 7.14048 12.7239 7.39052C12.4738 7.64057 12.3333 7.97971 12.3333 8.33333V9.66667H5.66667V8.33333C5.66667 7.97971 5.52619 7.64057 5.27614 7.39052C5.02609 7.14048 4.68696 7 4.33333 7C3.97971 7 3.64057 7.14048 3.39052 7.39052C3.14048 7.64057 3 7.97971 3 8.33333V8.33333Z" stroke="#7E8B97" stroke-width="1.5" stroke-linecap="round" stroke-linejoin="round"/>
<path d="M4.3335 13V14.3333" stroke="#7E8B97" stroke-width="1.5" stroke-linecap="round" stroke-linejoin="round"/>
<path d="M13.6665 13V14.3333" stroke="#7E8B97" stroke-width="1.5" stroke-linecap="round" stroke-linejoin="round"/>
</g>
<defs>
<filter id="filter0_d_1810_17289" x="-1" y="-1" width="20" height="20" filterUnits="userSpaceOnUse" color-interpolation-filters="sRGB">
<feFlood flood-opacity="0" result="BackgroundImageFix"/>
<feColorMatrix in="SourceAlpha" type="matrix" values="0 0 0 0 0 0 0 0 0 0 0 0 0 0 0 0 0 0 127 0" result="hardAlpha"/>
<feMorphology radius="2" operator="dilate" in="SourceAlpha" result="effect1_dropShadow_1810_17289"/>
<feOffset/>
<feComposite in2="hardAlpha" operator="out"/>
<feColorMatrix type="matrix" values="0 0 0 0 1 0 0 0 0 1 0 0 0 0 1 0 0 0 0.01 0"/>
<feBlend mode="normal" in2="BackgroundImageFix" result="effect1_dropShadow_1810_17289"/>
<feBlend mode="normal" in="SourceGraphic" in2="effect1_dropShadow_1810_17289" result="shape"/>
</filter>
</defs>
</svg>
