<svg width="39" height="46" viewBox="0 0 39 46" fill="none" xmlns="http://www.w3.org/2000/svg">
<g filter="url(#filter0_d_1810_17243)">
<path fill-rule="evenodd" clip-rule="evenodd" d="M36.5003 25.9754C36.6779 24.9919 36.7671 23.9952 36.7668 22.9966C36.7668 22.3817 36.7328 21.8029 36.6673 21.2506C36.6533 21.1309 34.6708 25.1056 31.499 27.6233C33.7055 25.69 36.5837 20.6459 36.5431 20.4272C36.5082 20.2374 36.4688 20.0484 36.4249 19.8604C36.0457 18.2335 35.3618 16.7872 34.4298 15.215C34.141 18.5516 33.1317 22.1061 30.4836 25.1797C33.2319 21.9544 34.1881 14.6082 33.5332 13.5965C30.8972 9.55458 25.3466 6.01691 19.4042 6.01691L19.3624 6.12357V6.02438C13.4198 6.02438 7.86962 9.56184 5.23362 13.6036C4.57854 14.6153 5.53474 21.9614 8.283 25.1868C5.63511 22.1131 4.62565 18.5586 4.33706 15.2221C3.40442 16.7945 2.72091 18.2403 2.3417 19.8675C2.29781 20.0555 2.2584 20.2445 2.2235 20.4342C2.18297 20.653 5.06131 25.6971 7.26781 27.6304C4.09578 25.1125 2.11336 21.1378 2.09915 21.2577C2.03166 21.8373 1.99857 22.4203 2.00005 23.0036C2.00005 24.0199 2.09129 25.0151 2.26636 25.9824C2.42828 26.8771 6.11491 29.3402 6.2104 29.4176C3.53259 28.3945 2.427 26.7853 2.52759 27.174C4.42852 34.5351 11.2447 39.983 19.3624 39.983V39.9754L19.4042 39.9758C27.5219 39.9758 34.3381 34.5283 36.2388 27.1668C36.3396 26.7781 35.2342 28.3872 32.5562 29.4103C32.6515 29.3331 36.3381 26.8702 36.5003 25.9754V25.9754ZM25.0168 26.6291C24.8415 26.7036 24.6641 26.7677 24.4825 26.8158C22.8179 27.2593 20.5036 27.0964 19.4216 25.7141C18.3271 24.3158 18.6301 22.0475 19.481 20.6158C20.3402 19.1704 21.63 18.0963 22.7761 16.8798C23.3252 16.2994 23.8847 15.7285 24.4543 15.1673C24.8239 14.8014 25.8327 14.0174 25.8119 13.4944C25.8024 13.2468 25.3423 12.8106 25.2144 12.5763C25.0278 12.235 24.9113 11.893 24.7117 11.5678C24.2699 10.8497 23.6767 10.5208 22.878 10.3668C21.8796 10.1745 21.1634 10.2602 20.3364 10.8018C19.7142 11.2094 19.0666 11.9693 18.3067 12.0494C17.106 12.176 11.8775 13.0238 11.6299 13.1769C12.2748 13.1302 20.1586 13.2794 21.0518 13.4944C22.102 13.7472 22.0544 14.5748 21.3414 15.2258C19.0991 17.2726 15.7959 18.4908 14.3877 21.3071C13.729 22.6238 13.3065 23.5154 13.3048 25.0554C13.3042 25.69 13.3549 26.9922 14.1566 28.6093C14.1195 28.5854 12.8895 27.1668 12.8401 25.9666C9.87305 24.0263 8.36406 21.1247 8.36406 17.3486C8.36406 11.3629 13.2798 6.5104 19.3435 6.5104C25.4073 6.5104 30.3228 11.3627 30.3228 17.3486C30.3232 21.2847 28.6026 24.9257 25.0168 26.6291V26.6291Z" fill="#B4282E"/>
<path fill-rule="evenodd" clip-rule="evenodd" d="M19.8187 29.917L18.3863 33.7659C17.5607 35.9842 14.0559 35.5181 13.9326 35.5181C13.6446 35.5181 13.4244 35.4869 13.2041 35.2834L13.7287 34.7123C13.8537 34.8063 14.0493 34.8611 14.2492 34.8611C14.4126 34.8611 16.2134 35.2433 16.7503 33.7659L18.1826 29.917H19.8187V29.917ZM29.9337 34.7436L29.692 35.3929H24.7639L26.802 29.917H28.4557L26.6589 34.7436H29.9337V34.7436ZM22.5869 29.9307L18.2208 35.4062H19.0688L20.174 33.9199H22.1517L21.8222 35.4062H23.5641L24.9021 29.9307H22.5869V29.9307ZM20.7495 33.1434L23.002 30.4476L22.3815 33.1434H20.7495V33.1434Z" fill="white"/>
</g>
<defs>
<filter id="filter0_d_1810_17243" x="0" y="-2" width="38.7666" height="50" filterUnits="userSpaceOnUse" color-interpolation-filters="sRGB">
<feFlood flood-opacity="0" result="BackgroundImageFix"/>
<feColorMatrix in="SourceAlpha" type="matrix" values="0 0 0 0 0 0 0 0 0 0 0 0 0 0 0 0 0 0 127 0" result="hardAlpha"/>
<feMorphology radius="2" operator="dilate" in="SourceAlpha" result="effect1_dropShadow_1810_17243"/>
<feOffset/>
<feComposite in2="hardAlpha" operator="out"/>
<feColorMatrix type="matrix" values="0 0 0 0 1 0 0 0 0 1 0 0 0 0 1 0 0 0 0.01 0"/>
<feBlend mode="normal" in2="BackgroundImageFix" result="effect1_dropShadow_1810_17243"/>
<feBlend mode="normal" in="SourceGraphic" in2="effect1_dropShadow_1810_17243" result="shape"/>
</filter>
</defs>
</svg>
