<svg width="39" height="46" viewBox="0 0 39 46" fill="none" xmlns="http://www.w3.org/2000/svg">
<g filter="url(#filter0_d_1810_17159)">
<path fill-rule="evenodd" clip-rule="evenodd" d="M36.5003 25.9754C36.6779 24.992 36.7671 23.9953 36.7668 22.9966C36.7668 22.3817 36.7328 21.8029 36.6673 21.2507C36.6533 21.131 34.6708 25.1057 31.499 27.6234C33.7055 25.6901 36.5837 20.646 36.5431 20.4273C36.5082 20.2375 36.4688 20.0485 36.4249 19.8605C36.0457 18.2335 35.3618 16.7873 34.4298 15.2151C34.141 18.5516 33.1317 22.1061 30.4836 25.1798C33.2319 21.9544 34.1881 14.6083 33.5332 13.5966C30.8972 9.55464 25.3466 6.01697 19.4042 6.01697L19.3624 6.12364V6.02444C13.4198 6.02444 7.86962 9.5619 5.23362 13.6036C4.57854 14.6153 5.53474 21.9615 8.283 25.1868C5.63511 22.1132 4.62565 18.5587 4.33706 15.2221C3.40442 16.7945 2.72091 18.2404 2.3417 19.8676C2.29781 20.0556 2.2584 20.2445 2.2235 20.4343C2.18297 20.653 5.06131 25.6971 7.26781 27.6304C4.09578 25.1125 2.11336 21.1378 2.09915 21.2578C2.03166 21.8374 1.99857 22.4203 2.00005 23.0037C2.00005 24.0199 2.09129 25.0152 2.26636 25.9825C2.42828 26.8771 6.11491 29.3402 6.2104 29.4176C3.53259 28.3945 2.427 26.7854 2.52759 27.1741C4.42852 34.5352 11.2447 39.9831 19.3624 39.9831V39.9754L19.4042 39.9758C27.5219 39.9758 34.3381 34.5283 36.2388 27.1668C36.3396 26.7781 35.2342 28.3873 32.5562 29.4104C32.6515 29.3332 36.3381 26.8703 36.5003 25.9754V25.9754ZM25.0168 26.6291C24.8415 26.7036 24.6641 26.7677 24.4825 26.8159C22.8179 27.2594 20.5036 27.0965 19.4216 25.7141C18.3271 24.3158 18.6301 22.0476 19.481 20.6159C20.3402 19.1705 21.63 18.0963 22.7761 16.8798C23.3252 16.2995 23.8847 15.7285 24.4543 15.1673C24.8239 14.8015 25.8327 14.0174 25.8119 13.4945C25.8024 13.2469 25.3423 12.8107 25.2144 12.5764C25.0278 12.235 24.9113 11.893 24.7117 11.5678C24.2699 10.8498 23.6767 10.5209 22.878 10.3669C21.8796 10.1745 21.1634 10.2602 20.3364 10.8019C19.7142 11.2094 19.0666 11.9694 18.3067 12.0495C17.106 12.1761 11.8775 13.0238 11.6299 13.177C12.2748 13.1303 20.1586 13.2795 21.0518 13.4945C22.102 13.7473 22.0544 14.5749 21.3414 15.2259C19.0991 17.2727 15.7959 18.4908 14.3877 21.3072C13.729 22.6239 13.3065 23.5154 13.3048 25.0555C13.3042 25.6901 13.3549 26.9923 14.1566 28.6093C14.1195 28.5855 12.8895 27.1668 12.8401 25.9667C9.87305 24.0264 8.36406 21.1247 8.36406 17.3486C8.36406 11.363 13.2798 6.51046 19.3435 6.51046C25.4073 6.51046 30.3228 11.3628 30.3228 17.3486C30.3232 21.2847 28.6026 24.9258 25.0168 26.6291V26.6291Z" fill="#B4282E"/>
<path fill-rule="evenodd" clip-rule="evenodd" d="M19.8187 29.9171L18.3863 33.7661C17.5607 35.9843 14.0559 35.5182 13.9326 35.5182C13.6446 35.5182 13.4244 35.4871 13.2041 35.2835L13.7287 34.7124C13.8537 34.8064 14.0493 34.8612 14.2492 34.8612C14.4126 34.8612 16.2134 35.2434 16.7503 33.7661L18.1826 29.9171H19.8187V29.9171ZM29.9337 34.7437L29.692 35.3931H24.7639L26.802 29.9171H28.4557L26.6589 34.7437H29.9337V34.7437ZM22.5869 29.9308L18.2208 35.4063H19.0688L20.174 33.9201H22.1517L21.8222 35.4063H23.5641L24.9021 29.9308H22.5869V29.9308ZM20.7495 33.1435L23.002 30.4478L22.3815 33.1435H20.7495V33.1435Z" fill="white"/>
</g>
<defs>
<filter id="filter0_d_1810_17159" x="0" y="-2" width="38.7666" height="50" filterUnits="userSpaceOnUse" color-interpolation-filters="sRGB">
<feFlood flood-opacity="0" result="BackgroundImageFix"/>
<feColorMatrix in="SourceAlpha" type="matrix" values="0 0 0 0 0 0 0 0 0 0 0 0 0 0 0 0 0 0 127 0" result="hardAlpha"/>
<feMorphology radius="2" operator="dilate" in="SourceAlpha" result="effect1_dropShadow_1810_17159"/>
<feOffset/>
<feComposite in2="hardAlpha" operator="out"/>
<feColorMatrix type="matrix" values="0 0 0 0 1 0 0 0 0 1 0 0 0 0 1 0 0 0 0.01 0"/>
<feBlend mode="normal" in2="BackgroundImageFix" result="effect1_dropShadow_1810_17159"/>
<feBlend mode="normal" in="SourceGraphic" in2="effect1_dropShadow_1810_17159" result="shape"/>
</filter>
</defs>
</svg>
