<svg width="182" height="41" viewBox="0 0 182 41" fill="none" xmlns="http://www.w3.org/2000/svg">
<g filter="url(#filter0_d_1016_12786)">
<path d="M133.851 12.059C135.214 12.059 136.452 12.2324 137.564 12.5792C138.676 12.926 139.615 13.3744 140.38 13.9245C140.858 14.2593 141.235 14.63 141.51 15.0366C141.785 15.4432 141.923 15.9693 141.923 16.6151V29.1711L141.917 29.5125C141.877 30.6362 141.64 31.6166 141.205 32.4536C140.727 33.3744 140.075 34.1397 139.25 34.7496C138.425 35.3595 137.456 35.8079 136.344 36.0949C135.232 36.3819 134.042 36.5254 132.775 36.5254C130.598 36.5254 128.888 36.2324 127.645 35.6465C126.401 35.0605 125.779 34.1098 125.779 32.7944C125.779 32.2444 125.893 31.7601 126.12 31.3415C126.347 30.923 126.604 30.6061 126.891 30.3909C127.585 30.7735 128.368 31.0964 129.241 31.3595C130.114 31.6226 131.017 31.7541 131.95 31.7541C133.241 31.7541 134.269 31.5388 135.035 31.1084C135.8 30.6779 136.183 29.9843 136.183 29.0276V28.4536L135.91 28.5657C134.983 28.9215 133.878 29.0994 132.595 29.0994C131.519 29.0994 130.497 28.9379 129.528 28.6151C128.559 28.2922 127.71 27.79 126.981 27.1084C126.251 26.4267 125.665 25.5478 125.223 24.4716C124.781 23.3953 124.559 22.1158 124.559 20.633C124.559 19.1741 124.793 17.9066 125.259 16.8303C125.725 15.7541 126.371 14.8632 127.196 14.1577C128.021 13.4521 129.002 12.926 130.138 12.5792C131.274 12.2324 132.512 12.059 133.851 12.059ZM37.2869 12.6159C39.4197 12.6159 41.165 13.0945 42.5227 14.0517C43.8804 15.0088 44.6841 16.6995 44.9338 19.1236H40.3769L40.3333 18.8554C40.2301 18.3267 40.0313 17.8439 39.737 17.407C39.2377 16.7203 38.4626 16.377 37.4118 16.377C35.9136 16.377 34.8888 17.1208 34.3374 18.6086C34.0461 19.3993 33.9004 20.4501 33.9004 21.761C33.9004 23.0095 34.0461 24.0134 34.3374 24.7729C34.868 26.1879 35.8668 26.8953 37.3337 26.8953C38.3741 26.8953 39.1128 26.6144 39.5498 26.0526C39.9867 25.4908 40.252 24.7625 40.3457 23.8678H44.887L44.8561 24.1786C44.7054 25.4167 44.2267 26.5928 43.42 27.7068C42.0259 29.6524 39.9607 30.6251 37.2245 30.6251C34.4883 30.6251 32.4751 29.8136 31.185 28.1906C29.8949 26.5676 29.2499 24.4608 29.2499 21.8702C29.2499 18.9467 29.9626 16.6735 31.3879 15.0505C32.8132 13.4274 34.7796 12.6159 37.2869 12.6159ZM78.6185 12.5691C80.0334 12.5691 81.3079 12.8344 82.4419 13.365C83.5759 13.8956 84.5123 14.7331 85.251 15.8776C85.9168 16.8868 86.3486 18.0572 86.5462 19.3889C86.6607 20.1692 86.7075 21.2928 86.6867 22.7598H75.0447L75.0606 23.0556C75.1718 24.605 75.7023 25.7029 76.6521 26.3491C77.2659 26.7757 78.0046 26.989 78.8681 26.989C79.7837 26.989 80.5276 26.7289 81.0998 26.2087C81.4119 25.9278 81.6876 25.5376 81.9269 25.0382H86.4682L86.4345 25.2714C86.2705 26.2052 85.7563 27.1522 84.892 28.1126C83.4355 29.7668 81.3963 30.5939 78.7745 30.5939C76.6105 30.5939 74.7014 29.8969 73.0471 28.5027C71.3929 27.1086 70.5658 24.8406 70.5658 21.6986C70.5658 18.7543 71.3123 16.4966 72.8053 14.9256C74.2982 13.3546 76.236 12.5691 78.6185 12.5691ZM109.848 6.31911C110.374 6.31911 110.846 6.35499 111.265 6.42674C111.683 6.49848 112.036 6.64198 112.323 6.85723C112.61 7.07248 112.831 7.36545 112.987 7.73615C113.142 8.10686 113.22 8.59116 113.22 9.18907V29.9962L113.099 30.0178C112.843 30.0632 112.495 30.1218 112.054 30.1936C111.54 30.2773 111.019 30.3191 110.493 30.3191C109.967 30.3191 109.495 30.2832 109.076 30.2115C108.658 30.1397 108.305 29.9962 108.018 29.781C107.731 29.5657 107.51 29.2728 107.354 28.9021C107.199 28.5314 107.121 28.0471 107.121 27.4492V6.64198L107.242 6.62038C107.498 6.57499 107.846 6.51642 108.287 6.44467C108.801 6.36097 109.321 6.31911 109.848 6.31911ZM119.015 12.5254C119.541 12.5254 120.014 12.5613 120.432 12.633C120.851 12.7048 121.203 12.8483 121.49 13.0635C121.777 13.2788 121.999 13.5717 122.154 13.9424C122.31 14.3131 122.387 14.7974 122.387 15.3953V29.9962L122.267 30.0178C122.011 30.0632 121.662 30.1218 121.221 30.1936C120.707 30.2773 120.187 30.3191 119.661 30.3191C119.135 30.3191 118.662 30.2832 118.244 30.2115C117.825 30.1397 117.473 29.9962 117.186 29.781C116.899 29.5657 116.677 29.2728 116.522 28.9021C116.366 28.5314 116.289 28.0471 116.289 27.4492V12.8483L116.409 12.8267C116.665 12.7813 117.014 12.7227 117.455 12.651C117.969 12.5672 118.489 12.5254 119.015 12.5254ZM147.574 6.31911C148.101 6.31911 148.573 6.35499 148.991 6.42674C149.41 6.49848 149.763 6.64198 150.05 6.85723C150.337 7.07248 150.558 7.36545 150.713 7.73615C150.869 8.10686 150.947 8.59116 150.947 9.18907V12.7048L151.071 12.6591C151.378 12.5505 151.809 12.4282 152.364 12.2922C152.997 12.1368 153.697 12.059 154.462 12.059C156.83 12.059 158.678 12.651 160.005 13.8348C161.332 15.0187 161.996 16.7825 161.996 19.1263V29.9962L161.885 30.027C161.646 30.0885 161.307 30.15 160.866 30.2115C160.352 30.2832 159.82 30.3191 159.27 30.3191C158.743 30.3191 158.271 30.2832 157.852 30.2115C157.434 30.1397 157.081 29.9962 156.794 29.781C156.507 29.5657 156.286 29.2728 156.131 28.9021C155.975 28.5314 155.897 28.0471 155.897 27.4492V19.485L155.893 19.2639C155.858 18.4004 155.614 17.7865 155.162 17.4223C154.672 17.0276 154.068 16.8303 153.35 16.8303C152.872 16.8303 152.417 16.8901 151.987 17.0097C151.557 17.1293 151.21 17.2728 150.947 17.4402V29.9962L150.836 30.027C150.597 30.0885 150.257 30.15 149.817 30.2115C149.302 30.2832 148.77 30.3191 148.22 30.3191C147.694 30.3191 147.222 30.2832 146.803 30.2115C146.385 30.1397 146.032 29.9962 145.745 29.781C145.458 29.5657 145.237 29.2728 145.081 28.9021C144.926 28.5314 144.848 28.0471 144.848 27.4492V6.64198L144.968 6.62038C145.225 6.57499 145.573 6.51642 146.014 6.44467C146.528 6.36097 147.048 6.31911 147.574 6.31911ZM104.626 8.29221L104.708 8.43122C104.843 8.67537 104.965 8.98179 105.075 9.3505C105.206 9.79295 105.272 10.2533 105.272 10.7317C105.272 11.6644 105.075 12.3281 104.68 12.7227C104.285 13.1173 103.753 13.3146 103.084 13.3146H95.55V17.3684H103.406L103.5 17.507C103.651 17.7494 103.781 18.0501 103.891 18.4088C104.022 18.8393 104.088 19.2937 104.088 19.772C104.088 20.6808 103.891 21.3326 103.496 21.7272C103.102 22.1218 102.569 22.3191 101.9 22.3191H95.6217V29.8886L95.4998 29.9194C95.2377 29.9809 94.8658 30.0424 94.3841 30.1039C93.822 30.1756 93.266 30.2115 92.7159 30.2115C92.1658 30.2115 91.6815 30.1696 91.263 30.0859C90.8445 30.0022 90.4917 29.8527 90.2047 29.6375C89.9177 29.4223 89.7025 29.1233 89.559 28.7406C89.4155 28.358 89.3437 27.8557 89.3437 27.2339V11.6285L89.3499 11.3759C89.3956 10.4661 89.6925 9.73715 90.2406 9.18907C90.8385 8.59116 91.6516 8.29221 92.68 8.29221H104.626ZM20.3082 7.06025V11.1022H8.7754V16.3926H18.8724V20.3877H8.7754V30.0321H4V7.06025H20.3082ZM26.8234 13.0217V30.0321H22.3133V13.0217H26.8234ZM51.4022 7.10706V19.4981L56.9423 13.0997H62.4512L56.5054 19.6074L62.6853 30.0321H57.3169L53.2437 22.7598L51.4022 24.6793V30.0321H47.0326V7.10706H51.4022ZM68.4827 7.02903V30.0321H64.035V7.02903H68.4827ZM162.328 8.14468C163.074 7.92049 164.346 7.87062 165.836 8.52933C167.339 9.19431 168.277 10.3349 168.649 11.9511L176.721 12.6371C176.821 12.6429 176.92 12.6632 177.019 12.6979C177.167 12.7499 177.247 12.8232 177.314 12.8805C177.478 13.0211 177.531 13.1295 177.609 13.3236C177.748 13.6687 177.706 14.0749 177.525 14.3534C177.233 14.8025 176.777 15.093 176.156 15.225L169.639 16.6101L170.79 22.0217C170.922 22.6429 171.213 23.043 171.663 23.2221C172.113 23.4011 172.696 23.4144 173.413 23.2621C173.772 23.1859 174.136 23.0773 174.505 22.9363C174.875 22.7953 175.193 22.6466 175.459 22.4901C175.73 22.7072 175.977 22.9605 176.201 23.25C176.425 23.5396 176.585 23.9113 176.682 24.3653C177.038 26.0434 174.397 27.6288 172.666 27.94C171.062 28.2281 168.602 28.4675 167.195 24.7828C165.789 21.098 163.58 14.9216 161.894 9.77439C161.748 9.3302 161.658 8.89393 161.814 8.53393C161.899 8.33934 161.96 8.25535 162.328 8.14468ZM134.138 16.8303C132.966 16.8303 132.087 17.1592 131.501 17.8169C130.915 18.4746 130.622 19.4133 130.622 20.633C130.622 22.0202 130.915 23.0187 131.501 23.6285C132.087 24.2384 132.834 24.5433 133.743 24.5433C134.724 24.5433 135.501 24.3161 136.075 23.8617V17.2608L135.965 17.2034C135.806 17.1269 135.598 17.0504 135.34 16.9738C135.017 16.8782 134.616 16.8303 134.138 16.8303ZM78.6185 16.2365C77.5885 16.2365 76.79 16.559 76.2229 17.2041C75.6559 17.8491 75.2996 18.723 75.1539 19.8259H82.0674C81.9945 18.6502 81.6382 17.7581 80.9984 17.1495C80.3585 16.5408 79.5652 16.2365 78.6185 16.2365ZM26.8234 6.88858V10.9929H22.3133V6.88858H26.8234ZM119.338 4.52539C120.342 4.52539 121.15 4.8363 121.76 5.45813C122.369 6.07995 122.674 6.84527 122.674 7.75409C122.674 8.66291 122.369 9.42823 121.76 10.0501C121.15 10.6719 120.342 10.9828 119.338 10.9828C118.334 10.9828 117.526 10.6719 116.916 10.0501C116.307 9.42823 116.002 8.66291 116.002 7.75409C116.002 6.84527 116.307 6.07995 116.916 5.45813C117.526 4.8363 118.334 4.52539 119.338 4.52539Z" fill="white"/>
</g>
<defs>
<filter id="filter0_d_1016_12786" x="0" y="0" width="182" height="41" filterUnits="userSpaceOnUse" color-interpolation-filters="sRGB">
<feFlood flood-opacity="0" result="BackgroundImageFix"/>
<feColorMatrix in="SourceAlpha" type="matrix" values="0 0 0 0 0 0 0 0 0 0 0 0 0 0 0 0 0 0 127 0" result="hardAlpha"/>
<feMorphology radius="4" operator="dilate" in="SourceAlpha" result="effect1_dropShadow_1016_12786"/>
<feOffset/>
<feComposite in2="hardAlpha" operator="out"/>
<feColorMatrix type="matrix" values="0 0 0 0 1 0 0 0 0 1 0 0 0 0 1 0 0 0 0.01 0"/>
<feBlend mode="normal" in2="BackgroundImageFix" result="effect1_dropShadow_1016_12786"/>
<feBlend mode="normal" in="SourceGraphic" in2="effect1_dropShadow_1016_12786" result="shape"/>
</filter>
</defs>
</svg>
