<svg width="25" height="27" viewBox="0 0 25 27" fill="none" xmlns="http://www.w3.org/2000/svg">
<g filter="url(#filter0_d_1016_12051)">
<path d="M21.6732 20.0531C21.0303 19.48 20.4675 18.823 19.9999 18.0998C19.4894 17.1015 19.1834 16.0113 19.0999 14.8931V11.5998C19.1043 9.84351 18.4672 8.14609 17.3084 6.82642C16.1495 5.50675 14.5486 4.65568 12.8065 4.43311V3.57311C12.8065 3.33706 12.7128 3.11069 12.5459 2.94378C12.379 2.77687 12.1526 2.68311 11.9165 2.68311C11.6805 2.68311 11.4541 2.77687 11.2872 2.94378C11.1203 3.11069 11.0265 3.33706 11.0265 3.57311V4.44644C9.30004 4.68506 7.71852 5.54128 6.57489 6.85651C5.43126 8.17174 4.80302 9.85687 4.80654 11.5998V14.8931C4.72304 16.0113 4.41705 17.1015 3.90654 18.0998C3.44712 18.8213 2.89333 19.4783 2.25987 20.0531C2.18876 20.1156 2.13176 20.1925 2.09268 20.2787C2.0536 20.3649 2.03332 20.4584 2.0332 20.5531V21.4598C2.0332 21.6366 2.10344 21.8062 2.22847 21.9312C2.35349 22.0562 2.52306 22.1264 2.69987 22.1264H21.2332C21.41 22.1264 21.5796 22.0562 21.7046 21.9312C21.8296 21.8062 21.8999 21.6366 21.8999 21.4598V20.5531C21.8997 20.4584 21.8795 20.3649 21.8404 20.2787C21.8013 20.1925 21.7443 20.1156 21.6732 20.0531ZM3.41987 20.7931C4.04014 20.1939 4.58627 19.5224 5.04654 18.7931C5.68961 17.5874 6.06482 16.2571 6.14654 14.8931V11.5998C6.1201 10.8185 6.25115 10.0398 6.5319 9.31022C6.81265 8.58061 7.23734 7.91496 7.7807 7.35291C8.32406 6.79085 8.97496 6.34388 9.69466 6.03862C10.4143 5.73336 11.1881 5.57604 11.9699 5.57604C12.7516 5.57604 13.5254 5.73336 14.2451 6.03862C14.9648 6.34388 15.6157 6.79085 16.159 7.35291C16.7024 7.91496 17.1271 8.58061 17.4078 9.31022C17.6886 10.0398 17.8196 10.8185 17.7932 11.5998V14.8931C17.8749 16.2571 18.2501 17.5874 18.8932 18.7931C19.3535 19.5224 19.8996 20.1939 20.5199 20.7931H3.41987Z" fill="#424242"/>
<path d="M12 24.3135C12.42 24.3038 12.823 24.1459 13.1378 23.8677C13.4526 23.5896 13.6588 23.209 13.72 22.7935H10.2134C10.2764 23.2203 10.4923 23.6098 10.8209 23.8894C11.1496 24.169 11.5686 24.3197 12 24.3135V24.3135Z" fill="#424242"/>
<circle cx="18.4565" cy="6.93701" r="3.5" fill="#F99A0E" stroke="white"/>
</g>
<defs>
<filter id="filter0_d_1016_12051" x="-2" y="-0.5" width="28" height="28" filterUnits="userSpaceOnUse" color-interpolation-filters="sRGB">
<feFlood flood-opacity="0" result="BackgroundImageFix"/>
<feColorMatrix in="SourceAlpha" type="matrix" values="0 0 0 0 0 0 0 0 0 0 0 0 0 0 0 0 0 0 127 0" result="hardAlpha"/>
<feMorphology radius="2" operator="dilate" in="SourceAlpha" result="effect1_dropShadow_1016_12051"/>
<feOffset/>
<feComposite in2="hardAlpha" operator="out"/>
<feColorMatrix type="matrix" values="0 0 0 0 1 0 0 0 0 1 0 0 0 0 1 0 0 0 0.01 0"/>
<feBlend mode="normal" in2="BackgroundImageFix" result="effect1_dropShadow_1016_12051"/>
<feBlend mode="normal" in="SourceGraphic" in2="effect1_dropShadow_1016_12051" result="shape"/>
</filter>
</defs>
</svg>
