<svg width="39" height="50" viewBox="0 0 39 50" fill="none" xmlns="http://www.w3.org/2000/svg">
<g filter="url(#filter0_d_1810_17138)">
<path d="M12.8822 44.1249H9.53702L16.2958 33.9451C16.2958 33.9451 17.3057 31.8368 15.9855 29.6081L6.56526 14.7199C6.56526 14.7199 5.73947 13.3395 6.56526 12.0143L9.35293 8.03369L20.409 25.2711C20.409 25.2711 23.2597 28.8803 20.1617 33.3528L12.8822 44.1249Z" fill="#FCB130"/>
<path d="M20.9612 41.0026L25.0691 35.0292C25.0691 35.0292 26.2683 32.5646 29.3663 32.5646H33.7266L36.7668 37.1375C36.7668 37.1375 34.3683 36.9016 33.2953 38.533L28.814 44.9832C28.814 44.9832 27.3518 48 23.4438 48H2.33111L10.3628 36.234C10.3628 36.234 11.4989 34.8536 9.91043 32.5646L2.76241 21.6017C2.76241 21.6017 1.00565 19.9804 2.82553 17.2045L4.91365 14.1877L14.8441 29.5528C14.8441 29.5528 16.6008 31.6611 14.8441 34.191L7.38574 45.2894H23.1124C23.1124 45.2894 24.885 45.6006 26.4103 43.4321L30.3183 37.6947C30.3183 37.6947 31.2072 35.7621 33.1691 34.974H30.008C30.008 34.974 28.3564 35.0343 27.0993 36.9066L23.6279 42.0316C23.6279 42.0316 22.3655 44.2001 19.5779 44.2001H14.0814L20.714 34.3767C20.714 34.3767 24.3274 29.844 21.787 25.6827L10.7941 8.32977C10.7941 8.32977 9.96829 6.8289 10.9203 5.43343L13.3188 2L25.837 21.2403C25.837 21.2403 27.6726 24.1216 27.6726 26.3503C27.6726 28.579 26.2104 31.1039 25.4004 32.3839L19.8882 40.586C19.8882 40.586 19.2675 41.3741 19.7041 41.6702C20.1512 41.9664 20.5877 41.4343 20.9612 41.0026" fill="#FCB130"/>
</g>
<defs>
<filter id="filter0_d_1810_17138" x="0" y="0" width="38.7666" height="50" filterUnits="userSpaceOnUse" color-interpolation-filters="sRGB">
<feFlood flood-opacity="0" result="BackgroundImageFix"/>
<feColorMatrix in="SourceAlpha" type="matrix" values="0 0 0 0 0 0 0 0 0 0 0 0 0 0 0 0 0 0 127 0" result="hardAlpha"/>
<feMorphology radius="2" operator="dilate" in="SourceAlpha" result="effect1_dropShadow_1810_17138"/>
<feOffset/>
<feComposite in2="hardAlpha" operator="out"/>
<feColorMatrix type="matrix" values="0 0 0 0 1 0 0 0 0 1 0 0 0 0 1 0 0 0 0.01 0"/>
<feBlend mode="normal" in2="BackgroundImageFix" result="effect1_dropShadow_1810_17138"/>
<feBlend mode="normal" in="SourceGraphic" in2="effect1_dropShadow_1810_17138" result="shape"/>
</filter>
</defs>
</svg>
