<svg width="138" height="38" viewBox="0 0 138 38" fill="none" xmlns="http://www.w3.org/2000/svg">
<g filter="url(#filter0_d_1016_12789)">
<g clip-path="url(#clip0_1016_12789)">
<path d="M19.0001 4.6001C11.0471 4.6001 4.6001 11.0471 4.6001 19.0001C4.6001 26.9531 11.0471 33.4001 19.0001 33.4001C26.9531 33.4001 33.4001 26.9531 33.4001 19.0001C33.4001 11.0471 26.9531 4.6001 19.0001 4.6001ZM22.4111 14.5511H20.2466C19.9901 14.5511 19.7051 14.8886 19.7051 15.3371V16.9001H22.4126L22.0031 19.1291H19.7051V25.8206H17.1506V19.1291H14.8331V16.9001H17.1506V15.5891C17.1506 13.7081 18.4556 12.1796 20.2466 12.1796H22.4111V14.5511V14.5511Z" fill="white"/>
</g>
<g clip-path="url(#clip1_1016_12789)">
<path d="M119 4.6001C111.047 4.6001 104.6 11.0471 104.6 19.0001C104.6 26.9531 111.047 33.4001 119 33.4001C126.953 33.4001 133.4 26.9531 133.4 19.0001C133.4 11.0471 126.953 4.6001 119 4.6001ZM124.858 16.3961C124.864 16.5191 124.865 16.6421 124.865 16.7621C124.865 20.5121 122.014 24.8336 116.797 24.8336C115.255 24.8362 113.746 24.3934 112.45 23.5586C112.67 23.5856 112.897 23.5961 113.126 23.5961C114.455 23.5961 115.678 23.1446 116.648 22.3826C116.057 22.371 115.484 22.1751 115.009 21.8224C114.534 21.4696 114.181 20.9775 113.999 20.4146C114.424 20.4954 114.861 20.4784 115.279 20.3651C114.637 20.2353 114.059 19.8875 113.645 19.3806C113.23 18.8737 113.003 18.239 113.003 17.5841V17.5496C113.386 17.7611 113.824 17.8901 114.289 17.9051C113.687 17.5045 113.261 16.8891 113.098 16.1848C112.935 15.4805 113.047 14.7405 113.411 14.1161C114.124 14.9921 115.012 15.7087 116.019 16.2196C117.026 16.7304 118.129 17.0241 119.257 17.0816C119.113 16.4731 119.175 15.8342 119.432 15.2644C119.689 14.6945 120.128 14.2256 120.679 13.9305C121.23 13.6354 121.863 13.5307 122.48 13.6326C123.097 13.7345 123.663 14.0374 124.09 14.4941C124.724 14.3685 125.333 14.1357 125.89 13.8056C125.678 14.4628 125.235 15.0209 124.643 15.3761C125.205 15.3084 125.754 15.1572 126.272 14.9276C125.892 15.4974 125.413 15.9948 124.858 16.3961V16.3961Z" fill="white"/>
</g>
<g clip-path="url(#clip2_1016_12789)">
<path d="M73.5001 19.0001C73.5001 20.1936 73.026 21.3382 72.1821 22.1821C71.3382 23.026 70.1936 23.5001 69.0001 23.5001C67.8066 23.5001 66.662 23.026 65.8181 22.1821C64.9742 21.3382 64.5001 20.1936 64.5001 19.0001C64.5001 18.7436 64.5271 18.4931 64.5736 18.2501H63.0001V24.2456C63.0001 24.6626 63.3376 25.0001 63.7546 25.0001H74.2471C74.4469 24.9997 74.6385 24.92 74.7796 24.7786C74.9208 24.6371 75.0001 24.4454 75.0001 24.2456V18.2501H73.4266C73.4731 18.4931 73.5001 18.7436 73.5001 19.0001V19.0001ZM69.0001 22.0001C69.3942 22 69.7844 21.9223 70.1484 21.7714C70.5124 21.6205 70.8432 21.3994 71.1217 21.1207C71.4003 20.842 71.6213 20.5111 71.772 20.147C71.9227 19.7829 72.0002 19.3927 72.0001 18.9986C72 18.6045 71.9223 18.2143 71.7714 17.8503C71.6205 17.4863 71.3994 17.1555 71.1207 16.877C70.842 16.5984 70.5111 16.3774 70.147 16.2267C69.7829 16.076 69.3927 15.9985 68.9986 15.9986C68.2028 15.9988 67.4396 16.3151 66.877 16.878C66.3144 17.4409 65.9984 18.2042 65.9986 19.0001C65.9988 19.7959 66.3151 20.5591 66.878 21.1217C67.4409 21.6843 68.2043 22.0003 69.0001 22.0001V22.0001ZM72.6001 15.8501H74.3986C74.5181 15.8501 74.6327 15.8027 74.7173 15.7184C74.802 15.634 74.8497 15.5196 74.8501 15.4001V13.6016C74.8501 13.4819 74.8025 13.367 74.7179 13.2823C74.6332 13.1977 74.5183 13.1501 74.3986 13.1501H72.6001C72.4804 13.1501 72.3655 13.1977 72.2808 13.2823C72.1962 13.367 72.1486 13.4819 72.1486 13.6016V15.4001C72.1501 15.6476 72.3526 15.8501 72.6001 15.8501V15.8501ZM69.0001 4.6001C65.181 4.6001 61.5183 6.11724 58.8178 8.81776C56.1172 11.5183 54.6001 15.181 54.6001 19.0001C54.6001 22.8192 56.1172 26.4819 58.8178 29.1824C61.5183 31.883 65.181 33.4001 69.0001 33.4001C70.8911 33.4001 72.7637 33.0276 74.5107 32.304C76.2578 31.5803 77.8453 30.5196 79.1824 29.1824C80.5196 27.8453 81.5803 26.2578 82.304 24.5107C83.0276 22.7637 83.4001 20.8911 83.4001 19.0001C83.4001 17.1091 83.0276 15.2365 82.304 13.4895C81.5803 11.7424 80.5196 10.1549 79.1824 8.81776C77.8453 7.4806 76.2578 6.4199 74.5107 5.69623C72.7637 4.97256 70.8911 4.6001 69.0001 4.6001V4.6001ZM76.5001 24.8336C76.5001 25.7501 75.7501 26.5001 74.8336 26.5001H63.1666C62.2501 26.5001 61.5001 25.7501 61.5001 24.8336V13.1666C61.5001 12.2501 62.2501 11.5001 63.1666 11.5001H74.8336C75.7501 11.5001 76.5001 12.2501 76.5001 13.1666V24.8336V24.8336Z" fill="white"/>
</g>
</g>
<defs>
<filter id="filter0_d_1016_12789" x="0" y="0" width="138" height="38" filterUnits="userSpaceOnUse" color-interpolation-filters="sRGB">
<feFlood flood-opacity="0" result="BackgroundImageFix"/>
<feColorMatrix in="SourceAlpha" type="matrix" values="0 0 0 0 0 0 0 0 0 0 0 0 0 0 0 0 0 0 127 0" result="hardAlpha"/>
<feMorphology radius="4" operator="dilate" in="SourceAlpha" result="effect1_dropShadow_1016_12789"/>
<feOffset/>
<feComposite in2="hardAlpha" operator="out"/>
<feColorMatrix type="matrix" values="0 0 0 0 1 0 0 0 0 1 0 0 0 0 1 0 0 0 0.01 0"/>
<feBlend mode="normal" in2="BackgroundImageFix" result="effect1_dropShadow_1016_12789"/>
<feBlend mode="normal" in="SourceGraphic" in2="effect1_dropShadow_1016_12789" result="shape"/>
</filter>
<clipPath id="clip0_1016_12789">
<rect width="30" height="30" fill="white" transform="translate(4 4)"/>
</clipPath>
<clipPath id="clip1_1016_12789">
<rect width="30" height="30" fill="white" transform="translate(104 4)"/>
</clipPath>
<clipPath id="clip2_1016_12789">
<rect width="30" height="30" fill="white" transform="translate(54 4)"/>
</clipPath>
</defs>
</svg>
