<svg width="39" height="46" viewBox="0 0 39 46" fill="none" xmlns="http://www.w3.org/2000/svg">
<g filter="url(#filter0_d_1810_17117)">
<path fill-rule="evenodd" clip-rule="evenodd" d="M19.384 8.0842C10.7755 8.0842 3.73053 15.2875 3.73053 24.2577C3.73053 33.2272 10.7761 40.4299 19.384 40.4299C27.9911 40.4299 35.036 33.2273 35.036 24.2577C35.036 15.2875 27.9903 8.0842 19.384 8.0842ZM2.17676 24.2577C2.17676 14.5245 9.8415 6.5647 19.384 6.5647C28.9244 6.5647 36.5898 14.5245 36.5898 24.2577C36.5898 33.9903 28.9251 41.9494 19.384 41.9494C9.84229 41.9494 2.17676 33.9904 2.17676 24.2577Z" fill="#CF4037"/>
<path fill-rule="evenodd" clip-rule="evenodd" d="M24.3444 20.545C23.5874 15.2975 19.164 12.7065 16.4009 11.1543C13.8366 9.71468 11.5407 9.06049 11.4853 9.22924C14.4018 11.5745 16.2745 15.2281 16.2745 19.3331C16.2745 26.0646 11.2353 31.5836 4.8335 32.0989L5.23828 32.7239C13.4339 31.4475 35.3664 27.3758 35.3664 27.3758L35.4246 26.8973L22.1181 26.4417C23.5867 24.8896 24.5922 22.2547 24.3444 20.545V20.545Z" fill="#CF4037"/>
</g>
<defs>
<filter id="filter0_d_1810_17117" x="0" y="-2" width="38.7666" height="50" filterUnits="userSpaceOnUse" color-interpolation-filters="sRGB">
<feFlood flood-opacity="0" result="BackgroundImageFix"/>
<feColorMatrix in="SourceAlpha" type="matrix" values="0 0 0 0 0 0 0 0 0 0 0 0 0 0 0 0 0 0 127 0" result="hardAlpha"/>
<feMorphology radius="2" operator="dilate" in="SourceAlpha" result="effect1_dropShadow_1810_17117"/>
<feOffset/>
<feComposite in2="hardAlpha" operator="out"/>
<feColorMatrix type="matrix" values="0 0 0 0 1 0 0 0 0 1 0 0 0 0 1 0 0 0 0.01 0"/>
<feBlend mode="normal" in2="BackgroundImageFix" result="effect1_dropShadow_1810_17117"/>
<feBlend mode="normal" in="SourceGraphic" in2="effect1_dropShadow_1810_17117" result="shape"/>
</filter>
</defs>
</svg>
