<svg width="17" height="18" viewBox="0 0 17 18" fill="none" xmlns="http://www.w3.org/2000/svg">
<path d="M16.1058 6.43997L11.1163 5.65575L8.88591 0.765512C8.82499 0.631621 8.72477 0.523232 8.60097 0.457349C8.29048 0.291578 7.91317 0.42972 7.75792 0.765512L5.5275 5.65575L0.538023 6.43997C0.400464 6.46123 0.274695 6.53136 0.178403 6.63762C0.0619923 6.76702 -0.00215557 6.94111 5.53105e-05 7.12163C0.00226619 7.30216 0.0706549 7.47435 0.190194 7.60037L3.80015 11.4067L2.94728 16.7815C2.92728 16.9065 2.94007 17.0351 2.98421 17.1527C3.02834 17.2703 3.10205 17.3721 3.19698 17.4467C3.29191 17.5212 3.40426 17.5655 3.52129 17.5746C3.63832 17.5836 3.75535 17.557 3.8591 17.4977L8.32192 14.9602L12.7847 17.4977C12.9066 17.5679 13.0481 17.5912 13.1837 17.5657C13.5256 17.502 13.7555 17.1513 13.6966 16.7815L12.8437 11.4067L16.4536 7.60037C16.5519 7.49623 16.6167 7.36021 16.6364 7.21144C16.6895 6.83952 16.4497 6.49523 16.1058 6.43997V6.43997Z" fill="#FDBF00"/>
</svg>
