<svg width="17" height="18" viewBox="0 0 17 18" fill="none" xmlns="http://www.w3.org/2000/svg">
<path d="M16.1363 6.43997L11.1372 5.65575L8.90251 0.765512C8.84148 0.631621 8.74106 0.523232 8.61702 0.457349C8.30593 0.291578 7.9279 0.42972 7.77236 0.765512L5.53764 5.65575L0.53857 6.43997C0.400746 6.46123 0.274735 6.53136 0.178258 6.63762C0.0616232 6.76702 -0.002648 6.94111 -0.000432864 7.12163C0.00178227 7.30216 0.0703025 7.47435 0.190072 7.60037L3.80697 11.4067L2.95246 16.7815C2.93242 16.9065 2.94524 17.0351 2.98946 17.1527C3.03368 17.2703 3.10753 17.3721 3.20264 17.4467C3.29776 17.5212 3.41032 17.5655 3.52758 17.5746C3.64483 17.5836 3.76208 17.557 3.86603 17.4977L8.33744 14.9602L12.8088 17.4977C12.9309 17.5679 13.0727 17.5912 13.2085 17.5657C13.5511 17.502 13.7815 17.1513 13.7224 16.7815L12.8679 11.4067L16.4848 7.60037C16.5832 7.49623 16.6482 7.36021 16.6679 7.21144C16.7211 6.83952 16.4809 6.49523 16.1363 6.43997V6.43997Z" fill="#FDBF00"/>
</svg>
